<?xml version="1.0" encoding="UTF-8"?><svg id="Layer_1_Image" xmlns="http://www.w3.org/2000/svg" xmlns:xlink="http://www.w3.org/1999/xlink" viewBox="0 0 1219.61 540"><defs><style>.cls-1,.cls-2{opacity:.06;}.cls-1,.cls-2,.cls-3,.cls-4,.cls-5,.cls-6,.cls-7,.cls-8,.cls-9,.cls-10{fill:none;}.cls-1,.cls-2,.cls-3,.cls-4,.cls-5,.cls-6,.cls-7,.cls-9,.cls-10{stroke-miterlimit:10;}.cls-1,.cls-3,.cls-4,.cls-9{stroke-width:13px;}.cls-1,.cls-7,.cls-9,.cls-10{stroke:#eee;}.cls-2,.cls-4,.cls-5,.cls-6{stroke:#000;}.cls-2,.cls-5{stroke-width:18px;}.cls-3{stroke:#0f0f0f;}.cls-3,.cls-5,.cls-6,.cls-7,.cls-9,.cls-10{opacity:.05;}.cls-4{opacity:.04;}.cls-6{stroke-width:11px;}.cls-7{stroke-width:8px;}.cls-11{clip-path:url(#clippath);}.cls-10{stroke-width:14px;}.cls-12{fill:#890000;}</style><clipPath id="clippath"><rect class="cls-8" width="1219.61" height="540"/></clipPath></defs><g class="cls-11"><g><g><rect width="1219.61" height="540"/><path class="cls-12" d="M912,107.16c32.52,83.61,0,141.68,0,141.68-13.63,26.59-92.13,99.87-37.16,161.42,67.94,76.07-21.52,86.29-25.18,129.74h369.95V0h-366.5l58.89,107.16Z"/></g><g><polygon class="cls-3" points="1034.29 208.51 994.63 207.87 975.35 173.21 995.74 139.18 1035.4 139.82 1054.67 174.48 1034.29 208.51"/><polygon class="cls-7" points="173.54 410.85 125.35 410.07 101.93 367.95 126.7 326.62 174.88 327.39 198.3 369.51 173.54 410.85"/><polygon class="cls-2" points="1254 351.85 1147.49 350.13 1095.72 257.04 1150.46 165.65 1256.97 167.37 1308.74 260.47 1254 351.85"/><polygon class="cls-6" points="1138.56 106.39 1089.43 110.11 1059.35 71.07 1078.42 28.31 1127.56 24.58 1157.63 63.62 1138.56 106.39"/><ellipse class="cls-5" cx="1010.96" cy="496.06" rx="74.17" ry="72.26"/><circle class="cls-4" cx="1054.6" cy="410.49" r="47.85"/><circle class="cls-1" cx="48.34" cy="169.66" r="67.55"/><circle class="cls-9" cx="146.31" cy="75.12" r="26.99"/><path class="cls-10" d="M263.69,202.57c4.78,5.34,1.98,13.86-5.04,15.33l-22.2,4.64-22.2,4.64c-7.02,1.47-13-5.21-10.76-12.03l7.08-21.54,7.08-21.54c2.24-6.81,11.01-8.65,15.79-3.3l15.12,16.9,15.12,16.9Z"/></g></g></g></svg>