<?xml version="1.0" encoding="UTF-8"?><svg id="Layer_1" xmlns="http://www.w3.org/2000/svg" viewBox="0 0 1899.61 231.82"><defs><style>.cls-1{fill-rule:evenodd;}.cls-1,.cls-2{fill:#890000;}.cls-3{fill:#eee;}</style></defs><g><path class="cls-1" d="M842.45,94.02v12.8h-18.2c-.7,1.2-1.5,2.4-2.1,3.6-6.5,12.4-9.8,25.7-9.8,40s3.3,27.5,9.9,39.9c6.6,12.4,16.7,22.5,30.3,30.1,13.5,7.6,30.1,11.4,49.8,11.4s35.8-3.6,49.3-11c13.5-7.3,23.7-17.2,30.5-29.6,6.8-12.4,10.2-26,10.2-40.8,0-9.1-1.3-17.8-4-26.1h-20v-30.3h-17.1v26.2h-19.5c.4,.4,.9,.7,1.3,1.1,3.6,3.6,6.2,7.9,7.9,12.8,1.8,4.9,2.6,10.4,2.6,16.3,0,7.9-1.6,14.9-4.8,21.1-3.2,6.1-7.9,10.9-14.1,14.4-6.1,3.4-13.7,5.2-22.4,5.2-12.8,0-22.8-3.8-30.1-11.3s-11-17.3-11-29.4,3.7-21.9,11-29.4c2-2,4.2-3.8,6.6-5.2h-29v-21.9l-7.3,.1h0Zm-14.8,24.5h12.5v12.5h-12.5v-12.5Zm117,8.2h12.5v12.5h-12.5v-12.5Zm-97.4,2h12.5v12.5h-12.5v-12.5Zm124.3,3.3h12.5v12.5h-12.5v-12.5Zm-134.9,14.3h9.3v9.3h-9.3v-9.3Zm124,8.7h8.9v9h-8.9v-9Z"/><path class="cls-1" d="M857.95,80.02h23.3v23.3h-23.3v-23.3Z"/><path class="cls-1" d="M918.45,84.52h23.3v23.3h-23.3v-23.3Z"/><path class="cls-1" d="M976.05,92.42h20.2v20.2h-20.2v-20.2Z"/><path class="cls-1" d="M987.75,51.72h12.5v12.5h-12.5v-12.5Z"/><path class="cls-1" d="M825.45,81.12h12.5v12.5h-12.5v-12.5Z"/><path class="cls-1" d="M848.45,51.02h12.5v12.4h-12.5v-12.4Z"/><path class="cls-1" d="M896.45,86.62h9.5v9.5h-9.5v-9.5Z"/><path class="cls-1" d="M927.85,42.52h12.2v12.2h-12.2v-12.2Z"/><path class="cls-1" d="M948.45,11.52h12.5v12.5h-12.5V11.52Z"/><path class="cls-1" d="M921.75,.92h6V6.92h-6V.92Z"/><path class="cls-1" d="M887.95,45.82h21.2v21.2h-21.2v-21.2Z"/><path class="cls-1" d="M952.15,49.92h20v20h-20v-20Z"/><path class="cls-1" d="M993.85,18.12h6v6h-6v-6Z"/><path class="cls-1" d="M883.65,19.92h12.5v12.5h-12.5v-12.5Z"/></g><path class="cls-2" d="M214.95,47.02V230.02h-50.9v-101l-34.5,101h-42.6l-34.8-101.7v101.8H1.25V47.12H62.75l46,118.9,44.9-118.9h61.3v-.1Z"/><path class="cls-2" d="M359.75,200.22h-64.9l-9.9,29.9h-53.5L298.15,47.12h58.7l66.5,183h-53.7l-9.9-29.9Zm-12.7-39l-19.7-59.2-19.5,59.2h39.2Z"/><path class="cls-2" d="M532.65,230.02l-36.3-67.5h-5.5v67.5h-50.9V47.02h80.2c14.7,0,27.2,2.6,37.4,7.7s17.9,12.1,23.1,21c5.2,8.9,7.8,18.9,7.8,30,0,12.5-3.4,23.4-10.3,32.8-6.8,9.4-16.8,16.1-30,20.1l41.3,71.4h-56.8Zm-41.7-102.3h25.2c6.9,0,12.1-1.6,15.6-4.9s5.2-8,5.2-14.3c0-5.9-1.8-10.5-5.3-13.9s-8.7-5.1-15.4-5.1h-25.2v38.2h-.1Z"/><path class="cls-2" d="M652.15,219.82c-14.4-8-25.7-19.2-34.1-33.5-8.4-14.3-12.6-30.4-12.6-48.4s4.2-34.1,12.6-48.4c8.4-14.3,19.8-25.4,34.1-33.4,14.4-8,30.1-11.9,47.2-11.9s33.1,4,47.4,11.9c14.3,8,25.6,19.1,33.9,33.4,8.3,14.3,12.5,30.4,12.5,48.4s-4.2,34.1-12.5,48.4-19.6,25.4-34,33.5c-14.4,8-30.1,12.1-47.2,12.1s-33-4.1-47.3-12.1Zm78-47.9c7.5-8.5,11.3-19.8,11.3-34s-3.8-26-11.3-34.4-17.8-12.6-30.8-12.6-23.5,4.2-30.9,12.6-11.2,19.9-11.2,34.4,3.7,25.7,11.2,34.1c7.4,8.4,17.7,12.6,30.9,12.6s23.3-4.2,30.8-12.7Z"/><path class="cls-2" d="M1192.45,230.02h-50.9l-67.8-102.3v102.3h-50.9V47.02h50.9l67.8,103.6V47.02h50.9V230.02Z"/><path class="cls-3" d="M1338.35,107.22c-2.9-4.8-7-8.6-12.1-11.2s-11.1-3.9-18-3.9c-12.8,0-22.9,4.2-30.2,12.5-7.4,8.3-11,19.5-11,33.5,0,15.8,3.9,27.7,11.8,36,7.9,8.2,19.3,12.3,34.4,12.3,17.8,0,30.5-8,38.2-24.1h-51.1v-36.6h95v49.3c-4,9.7-9.8,18.8-17.5,27.3s-17.4,15.4-29.2,20.9c-11.8,5.5-25.2,8.2-40.2,8.2-18.3,0-34.6-3.9-48.7-11.8-14.1-7.9-25-18.9-32.7-33s-11.6-30.2-11.6-48.4,3.8-34,11.6-48.2c7.7-14.1,18.6-25.1,32.6-33s30.2-11.8,48.5-11.8c23,0,42.1,5.5,57.1,16.6,15.1,11.1,24.4,26.2,28,45.4h-54.9Z"/><path class="cls-3" d="M1510.75,230.02l-36.3-67.5h-5.5v67.5h-50.9V47.02h80.2c14.7,0,27.2,2.6,37.4,7.7,10.2,5.1,17.9,12.1,23.1,21s7.8,18.9,7.8,30c0,12.5-3.4,23.4-10.3,32.8-6.8,9.4-16.8,16.1-30,20.1l41.3,71.4h-56.8Zm-41.8-102.3h25.2c6.9,0,12.1-1.6,15.6-4.9s5.2-8,5.2-14.3c0-5.9-1.8-10.5-5.3-13.9s-8.7-5.1-15.4-5.1h-25.2v38.2h-.1Z"/><path class="cls-3" d="M1640.55,87.82v29.9h58.4v38.7h-58.4v33h66.2v40.8h-117.1V47.22h117.1v40.8h-66.2v-.2Z"/><path class="cls-3" d="M1898.35,47.02l-64.4,124.9v58.2h-51.1v-58.2l-64.4-124.9h58.2l32.2,70.6,32.2-70.6h57.3Z"/></svg>